<svg width="48" height="48" viewBox="0 0 48 48" version="1.1" xmlns="http://www.w3.org/2000/svg" xmlns:xlink="http://www.w3.org/1999/xlink"><title>toolkit</title><desc>Created with Sketch Internal.</desc><defs><path d="M10.5,16 L37.5,16 L37.5,16 C38.3284271,16 39,16.6715729 39,17.5 L39,21.5 L39,21.5 C39,21.7761424 38.7761424,22 38.5,22 L9.5,22 L9.5,22 C9.22385763,22 9,21.7761424 9,21.5 L9,17.5 L9,17.5 C9,16.6715729 9.67157288,16 10.5,16 Z" id="path-1"/></defs><g id="Design" stroke="none" stroke-width="1" fill="none" fill-rule="evenodd"><g id="toolkit"><path d="M24,48 C47.814834,48 48,37.254834 48,24 C48,10.745166 47.814834,0 24,0 C0.185166005,2.91647602e-15 0,10.745166 0,24 C0,37.254834 0.185166005,48 24,48 Z" id="Combined-Shape" fill="#FB8333"/><path d="M20,14 C19.4477153,14 19,14.4477153 19,15 L19,19 C19,19.5522847 19.4477153,20 20,20 L28,20 C28.5522847,20 29,19.5522847 29,19 L29,15 C29,14.4477153 28.5522847,14 28,14 L20,14 Z M20,12 L28,12 C29.6568542,12 31,13.3431458 31,15 L31,19 C31,20.6568542 29.6568542,22 28,22 L20,22 C18.3431458,22 17,20.6568542 17,19 L17,15 C17,13.3431458 18.3431458,12 20,12 Z" id="Rectangle-15" fill="#C85000" fill-rule="nonzero"/><g id="Rectangle-14"><use fill="#FA6400" xlink:href="#path-1"/><use fill-opacity=".5" fill="#FFF" xlink:href="#path-1"/></g><path d="M10,22 L38,22 L38,34.5 L38,34.5 C38,35.3284271 37.3284271,36 36.5,36 L11.5,36 L11.5,36 C10.6715729,36 10,35.3284271 10,34.5 L10,22 Z" id="Rectangle-14" fill="#C85000"/><rect id="Rectangle-17" fill="#FFF" x="15" y="20" width="4" height="5" rx=".5"/><rect id="Rectangle-17" fill="#FFF" x="29" y="20" width="4" height="5" rx=".5"/></g></g></svg>